<svg viewBox="0 0 230 46" xmlns="http://www.w3.org/2000/svg"><g fill="#385a77"><path d="m37.23 25.22c0 15.13 0 17.32.73 17.63v.31h-9.26v-.31c.73-.31.73-2.5.73-15.13v-1.77h-17.31v1.77c0 12.64 0 14.82.73 15.13v.31h-9.21v-.31c.73-.31.73-2.5.73-17.63v-5.72c0-14.09 0-16.28-.68-16.59v-.31h9.1v.31c-.68.31-.68 2.5-.68 14.77v1.61h17.32v-1.61c0-12.27 0-14.46-.62-14.77v-.31h9.05v.31c-.62.31-.62 2.5-.62 16.59v5.72z"/><path d="m46.59 19.5c0-14.09 0-16.28-.62-16.59v-.31h21.27c0 2.34-.05 4.16-.05 7.23h-.31c-.36-.57-2.7-.73-5.88-.73h-6.66v10.24h6.6c3.22 0 4.21-.05 4.58-.42h.26v7.33h-.26c-.36-.42-1.4-.47-4.47-.47h-6.71v9.83c0 .47.05.73.36.94 2.7.05 6.29.05 8.68 0 2.18 0 3.59-.1 4-.62h.31c-.05 3.12-.05 4.84-.05 7.23h-21.74v-.31c.68-.31.68-2.5.68-17.63v-5.72z"/><path d="m108.78 43.68h-.99c-9.1-8.94-14.56-14.35-18.1-17.89-2.5-2.5-4.32-4.32-7.28-7.64h-.1c.1 2.08.1 3.69.1 7.9 0 14.3 0 16.48.68 16.8v.31h-8.53v-.31c.68-.31.68-2.5.68-17.63v-23.04h1.04c9.36 9.31 14.87 14.82 18.41 18.41 2.29 2.34 4.37 4.42 6.86 7.28h.16c-.05-2.44-.05-4.16-.05-9 0-13.47 0-15.65-.73-15.96v-.31h8.48v.31c-.62.31-.62 2.5-.62 16.59v24.18z"/><path d="m118.04 19.5c0-14.09 0-16.28-.62-16.48v-.31c.88-.05 2.34-.1 3.8-.16 1.25-.05 3.54-.1 4.89-.1 2.96 0 5.51.26 7.8.99 3.22 1.04 7.64 4.06 7.64 10.97 0 4.84-2.5 7.96-4.37 9.31-.99.78-2.13 1.51-3.02 1.82v.1c.73 1.04 1.61 2.29 9.41 13.1 1.25 1.72 2.86 3.8 3.38 4.11v.31h-7.8c-.47 0-1.14-.05-1.66-.21-3.02-4.52-6.55-9.83-10.66-15.86h-1.4v2.08c0 11.18.05 13.36.62 13.68v.31h-8.63v-.31c.62-.31.62-2.5.62-17.63zm15.81-4.63c0-3.74-2.44-5.93-6.34-5.93-.88 0-1.61.05-2.08.1v12.38c.42.05.99.05 1.51.05 1.46 0 2.91-.42 3.95-1.04 1.46-.83 2.96-2.6 2.96-5.51z"/><path d="m158.86 25.22c0 15.13 0 17 .73 17.63v.31h-9.26v-.36c.73-.57.73-2.44.73-17.52v-5.77c0-14.09 0-16.02-.68-16.54v-.36h9.15v.36c-.68.52-.68 2.39-.68 16.54v5.72z"/><path d="m168.22 19.5c0-13.83 0-15.91-.68-16.54v-.36h9.1v.31c-.62.57-.62 2.76-.62 13.83v2.81h.1l6.97-8.89c4.42-5.51 5.72-7.33 5.46-7.8v-.26h10.24v.31c-.73.31-2.39 2.5-7.38 8.32l-8.74 10.3 9.67 11.65c6.24 7.38 7.8 9.2 8.63 9.67v.31h-10.92v-.26c.31-.31-1.51-2.65-6.81-9.2l-7.12-8.89h-.1v3.74c0 11.86 0 13.68.73 14.3v.31h-9.26v-.36c.73-.62.73-2.44.73-17.58z"/><path d="m205.08 19.5c0-14.09 0-16.28-.62-16.59v-.31h21.27c0 2.34-.05 4.16-.05 7.23h-.31c-.36-.57-2.7-.73-5.88-.73h-6.66v10.24h6.6c3.22 0 4.21-.05 4.58-.42h.26v7.33h-.26c-.36-.42-1.4-.47-4.47-.47h-6.71v9.83c0 .47.05.73.36.94 2.7.05 6.29.05 8.68 0 2.18 0 3.59-.1 4-.62h.31c-.05 3.12-.05 4.84-.05 7.23h-21.74v-.31c.68-.31.68-2.5.68-17.63v-5.72z"/></g></svg>