<svg height="32" width="48" xmlns="http://www.w3.org/2000/svg"><path d="m47.02 24.38c.33 0 1.24.28 1.48.43.14.14.33.39.24.67-.72 2.44-1.24 4.5-1.58 6.5-.1.62-.33.76-.86.86-2.71.23-15.9-.44-22.52.14-.33.05-.62 0-.67-.09-.14-.29-.48-1.48-.43-1.86 2.34-.38 3.44-.96 3.78-2.2.24-.96.38-2.39.38-6.79-.02-3.86.13-14.49-.33-17.16-.1-1-.33-1.24-3.73-1.19-.14 0-.53-.38-.33-.86l.48-1.24c.1-.24.19-.24.48-.24 4.03.1 9.52-.05 13.24-.33.29.1.43 1.77.43 2.06-1.96.33-4.02.53-4.21 2.25-.43 2.14-.26 10.56-.29 14.2.05 6.93.14 8.42.19 9.18.05.81.33 1.19 1.05 1.34 2.76.57 10.16.64 11.57-2.15.43-.62.81-1.58 1.15-3.15.1-.26.23-.35.48-.33zm-35.82-5.83c.1-.28 10.17-.17 12.46-.19v-2.77c-.3-.04-11.34.03-12.03 0-1.1 0-1.24-.24-1.24-2.68 0-5.54.14-7.17.38-8.17.29-1.05 1.58-1.39 3.01-1.62.1-.33.05-1.77-.1-2.01-.91.05-1.96.09-3.15.14-2.86.19-5.87.04-8.84.05-.33 0-.38.05-.43.19-.19.43-.29 1.34-.24 1.77 2.58.43 3.15.86 3.35 2.34.3 3.61.28 19.49 0 22.95-.14 1.29-.72 1.63-3.25 2.49-.05.38.19 1.34.33 1.77.75.37 1.54-.09 4.54-.05 2.39 0 6.22.1 8.65.19.1-.24 0-1.48 0-1.82 0-.24-.1-.28-.38-.33-3.5-.87-3.45-.29-3.73-3.53-.14-1.92-.1-4.35-.1-7.17 0-1.05.05-1.43.76-1.53z" fill="#2d5a79"/></svg>
