<svg viewBox="0 0 143 25" xmlns="http://www.w3.org/2000/svg"><g fill="#6a4828"><path d="m12.4 17.53c0 3.39-2.77 6.02-7.14 6.02-1.46 0-3.14-.28-4.12-.7.06-1.43.08-2.13.14-4.12h.17c.28.36.67.59 1.09.78.62.25 1.46.39 2.38.39 1.65 0 3-.9 3-2.52 0-.98-.53-1.79-1.6-2.66-.87-.7-1.62-1.34-2.35-2.02-1.57-1.43-2.63-3.02-2.63-5.29 0-3.21 2.33-6.15 7.12-6.15 1.04 0 2.3.17 3.02.39-.06 1.43-.08 2.18-.14 4.06h-.17c-.22-.25-.62-.48-.98-.62-.39-.11-.9-.2-1.43-.2-1.76 0-3.05.92-3.05 2.44 0 .9.39 1.51 1.01 2.18.64.64 1.57 1.34 2.74 2.38 1.79 1.57 2.94 3.16 2.94 5.6v.03z"/><path d="m37.83 12.21c0 6.38-4.84 11.4-11.45 11.4s-11.37-4.96-11.37-11.2 5.01-11.29 11.65-11.29 11.17 4.73 11.17 11.06zm-4.37.08c0-4.12-2.97-7.39-6.97-7.39s-7.11 3.22-7.11 7.45 2.97 7.42 7.11 7.42 6.97-3.28 6.97-7.45z"/><path d="m41.41 10.5c0-7.59 0-8.48-.34-8.88v-.14c.67-.08 1.99-.14 3.02-.14.92 0 1.99 0 2.91.06 1.34.08 2.83.39 3.98 1.01 2.02 1.04 3.56 3.02 3.56 6.05 0 1.34-.34 2.58-.81 3.53-.59 1.06-1.43 1.9-2.38 2.49-.76.48-1.68.84-2.66 1.06-1.06.25-2.21.31-3.3.34v.81c0 5.04.03 6.13.36 6.38v.17h-4.68v-.17c.34-.31.34-1.34.34-9.49zm9.02-2.04c0-1.32-.62-2.41-1.68-3-.62-.36-1.43-.56-2.35-.56-.28 0-.64 0-1.01.03v7.42c.2 0 .73 0 1.01-.03.81-.03 1.57-.2 2.16-.5.48-.28 1.01-.7 1.32-1.23.36-.56.56-1.23.56-2.1v-.03z"/><path d="m58.21 10.5c0-7.59 0-8.76-.34-8.88v-.17c.48-.03 1.26-.06 2.04-.08.67-.03 1.9-.06 2.63-.06 1.6 0 2.97.14 4.2.53 1.74.56 4.12 2.18 4.12 5.91 0 2.6-1.34 4.28-2.35 5.01-.53.42-1.15.81-1.62.98v.06c.39.56.87 1.23 5.07 7.06.67.92 1.54 2.04 1.82 2.21v.17h-4.2c-.25 0-.62-.03-.9-.11-1.62-2.44-3.53-5.29-5.74-8.54h-.76v1.12c0 6.02.03 7.2.34 7.36v.17h-4.65v-.17c.34-.17.34-1.34.34-9.49zm8.51-2.49c0-2.02-1.32-3.19-3.42-3.19-.48 0-.87.03-1.12.06v6.66c.22.03.53.03.81.03.78 0 1.57-.22 2.13-.56.78-.45 1.6-1.4 1.6-2.97z"/><path d="m80.89 18.9c-1.18 2.86-1.62 4-1.34 4.17v.17h-4.93v-.17c.31-.17.84-1.32 4.4-9.52l5.38-12.54h.62l5.29 12.57c3.47 8.15 3.98 9.32 4.28 9.49v.17h-5.29v-.17c.28-.17-.17-1.34-1.29-4.17h-7.11zm5.88-3.33-.03-.08c-1.6-4.17-1.99-5.35-2.21-6.16h-.03c-.25.81-.67 1.99-2.32 6.16l-.03.08z"/><path d="m115.22 23.52h-.53c-4.9-4.82-7.84-7.73-9.74-9.63-1.34-1.34-2.32-2.32-3.92-4.12h-.06c.06 1.12.06 1.99.06 4.26 0 7.7 0 8.88.36 9.04v.17h-4.59v-.17c.36-.17.36-1.34.36-9.49v-12.4h.56c5.04 5.01 8.01 7.98 9.91 9.91 1.23 1.26 2.35 2.38 3.7 3.92h.08c-.03-1.32-.03-2.24-.03-4.84 0-7.25 0-8.43-.39-8.6v-.17h4.56v.17c-.34.17-.34 1.34-.34 8.93v13.02z"/><path d="m141.57 12.21c0 6.38-4.84 11.4-11.45 11.4s-11.37-4.96-11.37-11.2 5.01-11.28 11.65-11.28 11.17 4.73 11.17 11.06v.03zm-4.37.08c0-4.12-2.97-7.39-6.97-7.39s-7.11 3.22-7.11 7.45 2.97 7.42 7.11 7.42 6.97-3.28 6.97-7.45z"/></g></svg>
